<svg xmlns="http://www.w3.org/2000/svg" xmlns:xlink="http://www.w3.org/1999/xlink" width="16" height="16" preserveAspectRatio="xMidYMid meet" viewBox="0 0 16 16" style="-ms-transform: rotate(360deg); -webkit-transform: rotate(360deg); transform: rotate(360deg);"><path fill-rule="evenodd" d="M1 2.75A.75.75 0 0 1 1.75 2h12.5a.75.75 0 1 1 0 1.5H1.75A.75.75 0 0 1 1 2.75zm0 5A.75.75 0 0 1 1.75 7h12.5a.75.75 0 1 1 0 1.5H1.75A.75.75 0 0 1 1 7.75zM1.75 12a.75.75 0 1 0 0 1.5h12.5a.75.75 0 1 0 0-1.5H1.75z" fill=" #c8c9ca"/><rect x="0" y="0" width="16" height="16" fill="rgba(0, 0, 0, 0)" /></svg>